{"title":"Les liaisons dangereuses (1959) Jeanne Moreau Fr,Eng subs","uid":5330344,"size":848982403,"categoryP":"video","categoryS":"movies","magnet":"?xt=urn:btih:272dcda8c5da4a3e23f0651b97396608fb6e0308&amp;dn=Les+liaisons+dangereuses+%281959%29+Jeanne+Moreau+Fr%2CEng+subs&amp;tr=udp%3A%2F%2Ftracker.openbittorrent.com%3A80&amp;tr=udp%3A%2F%2Fopen.demonii.com%3A1337&amp;tr=udp%3A%2F%2Ftracker.coppersurfer.tk%3A6969&amp;tr=udp%3A%2F%2Fexodus.desync.com%3A6969","seeders":13,"leechers":2,"uploader":"johnefp","files":-1,"time":1265148487,"description":"Roger Vadim's 1959 literary adaptation Les Liaisons Dangereuses comes to DVD for the first time in the U.S. from Wellspring. Presented with a widescreen transfer that preserves the original aspect ratio. The French-language soundtrack is offered in Dolby Digital Stereo with optional English subtitles. Special features include web links, a sampling of French film trailers (Jules et Jim, Place VendÃƒÂ´me, The Return of Martin Guerre, Z), and filmographies for director Roger Vadim and stars Jeanne Moreau and Jean-Louis Trintignant.\n\n\n &lt;a href=&quot;\nhttp://www.imdb.com/title/tt0053002/&quot; rel=&quot;nofollow&quot; target=&quot;_NEW&quot;&gt;\nhttp://www.imdb.com/title/tt0053002/&lt;/a&gt;\n\n\n &lt;a href=&quot;\nhttp://en.wikipedia.org/wiki/Les_Liaisons_dangereuses&quot; rel=&quot;nofollow&quot; target=&quot;_NEW&quot;&gt;\nhttp://en.wikipedia.org/wiki/Les_Liaisons_dangereuses&lt;/a&gt;\n\n\n\nSubs:\n\n &lt;a href=&quot;\nhttp://www.opensubtitles.org/en/search/sublanguageid-all/idmovie-16796&quot; rel=&quot;nofollow&quot; target=&quot;_NEW&quot;&gt;\nhttp://www.opensubtitles.org/en/search/sublanguageid-all/idmovie-16796&lt;/a&gt;\n\n\n\nDirector:\nRoger Vadim\n\n\n\n        Jeanne Moreau\t ... \tJuliette de Merteuil\n\tGÃƒÂ©rard Philipe\t... \tVicomte de Valmont\n\tAnnette Vadim\t... \tMarianne Tourvel\n\tMadeleine Lambert\t... \tMme Rosemonde\n\tJeanne ValÃƒÂ©rie\t... \tCÃƒÂ©cile Volanges\n\tNicolas Vogel\t... \tJerry Court\n\tBoris Vian\t... \tPrÃƒÂ©van\n\n\n\nVideo #2\n      ID : 2\n      Format : VC-1\n      Format profile : MP@ML\n      Codec ID : WMV3\n      Codec ID/Info : Windows Media Video 9\n      Codec ID/Hint : WMV3\n      Duration : 1h 42mn\n      Bit rate mode : Variable\n      Bit rate : 1 000 Kbps\n      Width : 640 pixels\n      Height : 480 pixels\n      Display aspect ratio : 4/3\n      Frame rate : 25.000 fps\n      Resolution : 24 bits\n      Scan type : Progressive\n      Bits/(Pixel*Frame) : 0.130\n      Stream size : 731 MiB (90%)\n   Audio #1\n      ID : 1\n      Format : WMA2\n      Format profile : L\n      Codec ID : 161\n      Codec ID/Info : Windows Media Audio 2\n      Description of the codec : Windows Media Audio 9.2 -  96 kbps, 44 kHz, stereo 2-pass VBR\n      Duration : 1h 42mn\n      Bit rate mode : Variable\n      Bit rate : 95.9 Kbps\n      Channel(s) : 2 channels\n      Sampling rate : 44.1 KHz\n      Resolution : 16 bits\n      Stream size : 70.1 MiB (9%)\n\n\n\nPlease seed at least as much as you D/L.\n=======================================\nThanks \n\nJohn","torrent":{"xt":"urn:btih:272dcda8c5da4a3e23f0651b97396608fb6e0308","amp;dn":"Les+liaisons+dangereuses+%281959%29+Jeanne+Moreau+Fr%2CEng+subs","amp;tr":["udp%3A%2F%2Ftracker.openbittorrent.com%3A80","udp%3A%2F%2Fopen.demonii.com%3A1337","udp%3A%2F%2Ftracker.coppersurfer.tk%3A6969","udp%3A%2F%2Fexodus.desync.com%3A6969"],"infoHash":"272dcda8c5da4a3e23f0651b97396608fb6e0308","infoHashBuffer":{"type":"Buffer","data":[39,45,205,168,197,218,74,62,35,240,101,27,151,57,102,8,251,110,3,8]},"announce":[],"urlList":[]}}